<svg width="35" height="29" viewBox="0 0 35 29" fill="none" xmlns="http://www.w3.org/2000/svg">
<path fill-rule="evenodd" clip-rule="evenodd" d="M17.1842 0.00586331C14.9131 0.00586331 12.6593 0.298734 10.4867 0.966499C8.50521 1.57569 6.66281 2.48362 5.04056 3.77229C4.35111 4.32291 3.72539 4.92624 3.16339 5.58229H16.7845C18.3546 5.58229 19.9594 5.77558 21.4368 6.32619C22.6535 6.77723 23.7949 7.41571 24.7393 8.31193C25.6025 9.13199 26.2572 10.0868 26.6976 11.188C27.1379 12.2951 27.358 13.449 27.358 14.644C27.358 15.8389 27.1379 16.9929 26.6976 18.1C26.263 19.1953 25.6141 20.1384 24.7451 20.9409C23.7949 21.8195 22.6535 22.4522 21.4368 22.9032C19.9594 23.4538 18.3604 23.6471 16.7845 23.6471H3.20974C3.76014 24.2856 4.36849 24.8713 5.04056 25.4044C6.65122 26.6813 8.48783 27.56 10.4693 28.1164C12.6535 28.7315 14.9131 29.0009 17.1842 29.0009C19.4554 29.0009 21.7149 28.7315 23.8992 28.1164C25.8806 27.56 27.7173 26.6813 29.3279 25.4044C30.8922 24.1626 32.1147 22.6396 33.0069 20.8647C33.9919 18.9142 34.3685 16.7586 34.3685 14.5854C34.3685 12.4122 33.9919 10.2625 33.0069 8.30606C32.1089 6.53121 30.8922 5.00824 29.3279 3.76643C27.7057 2.48362 25.8633 1.56984 23.8818 0.960654C21.7091 0.292888 19.4554 0 17.1842 0V0.00586331ZM0.45771 10.7253H15.1332C16.4368 10.7253 18.0417 10.8717 19.1541 11.6039C20.2144 12.3009 20.6199 13.4139 20.6199 14.644C20.6199 15.8741 20.2549 17.1335 19.1773 17.9008C18.0707 18.6916 16.46 18.8497 15.1332 18.8497H0.567793C0.168025 17.4732 0 16.0322 0 14.5854C0 13.2792 0.133261 11.9788 0.45771 10.7253Z" fill="white"/>
</svg>
