<svg width="20" height="20" viewBox="0 0 20 20" xmlns="http://www.w3.org/2000/svg">
  <path d="M9.61199 3.1042C10.2353 2.78003 10.9688 3.25148 10.9688 3.97634V17.0249C10.9688 17.0249 10.9688 17.0249 10.9688 17.0249L11.9062 17.0249C11.9062 17.0249 11.9062 17.0249 11.9062 17.0249V9.10668C11.9062 8.41647 12.5768 7.94475 13.1927 8.20167L16.0052 9.37484C16.3607 9.52314 16.5938 9.88146 16.5938 10.2799V17.0249C16.5938 17.0249 16.5938 17.0249 16.5938 17.0249L17.5312 17.0249C17.7901 17.0249 18 17.2432 18 17.5125C18 17.7817 17.7901 18 17.5312 18H3.46875C3.20987 18 3 17.7817 3 17.5125C3 17.2432 3.20987 17.0249 3.46875 17.0249H4.40625C4.40625 17.0249 4.40625 17.0249 4.40625 17.0249V6.41405C4.40625 6.04472 4.60688 5.70708 4.92449 5.54191L9.61199 3.1042Z" />
</svg>