<svg viewBox="0 0 14 17" fill="none" xmlns="http://www.w3.org/2000/svg">
<path d="M0.215371 9.0273C0.147092 9.09551 0.092927 9.1765 0.0559702 9.26565C0.0190134 9.3548 -1.04904e-05 9.45037 -1.04904e-05 9.54687C-1.04904e-05 9.64338 0.0190134 9.73895 0.0559702 9.8281C0.092927 9.91725 0.147092 9.99824 0.215371 10.0664L6.09037 15.9414C6.15858 16.0097 6.23957 16.0639 6.32872 16.1008C6.41787 16.1378 6.51344 16.1568 6.60994 16.1568C6.70645 16.1568 6.80201 16.1378 6.89116 16.1008C6.98032 16.0639 7.06131 16.0097 7.12951 15.9414L13.0045 10.0664C13.1423 9.92865 13.2197 9.74175 13.2197 9.54688C13.2197 9.352 13.1423 9.1651 13.0045 9.0273C12.8667 8.88951 12.6798 8.81209 12.4849 8.81209C12.2901 8.81209 12.1032 8.88951 11.9654 9.0273L7.34432 13.6484L7.34432 0.734375C7.34432 0.539607 7.26695 0.352815 7.12922 0.215093C6.9915 0.0773706 6.80471 0 6.60994 0C6.41517 0 6.22838 0.0773706 6.09066 0.215093C5.95294 0.352815 5.87557 0.539607 5.87557 0.734375L5.87557 13.6484L1.25451 9.0273C1.18631 8.95902 1.10532 8.90486 1.01617 8.8679C0.927015 8.83094 0.831452 8.81192 0.734944 8.81192C0.638436 8.81192 0.542872 8.83094 0.453721 8.8679C0.36457 8.90486 0.283575 8.95902 0.215371 9.0273Z" fill="white"/>
</svg>
