<svg width="13" height="14" viewBox="0 0 13 14"  xmlns="http://www.w3.org/2000/svg">
<rect x="0.5" y="13" width="12" height="1" />
<rect x="1.5" y="10" width="4" height="1" transform="rotate(90 1.5 10)" />
<rect x="12.5" y="10" width="4" height="1" transform="rotate(90 12.5 10)" />
<path d="M6.14645 10.3536C6.34171 10.5488 6.65829 10.5488 6.85355 10.3536L10.0355 7.17157C10.2308 6.97631 10.2308 6.65973 10.0355 6.46447C9.84027 6.2692 9.52369 6.2692 9.32843 6.46447L6.5 9.29289L3.67157 6.46447C3.47631 6.2692 3.15973 6.2692 2.96447 6.46447C2.7692 6.65973 2.7692 6.97631 2.96447 7.17157L6.14645 10.3536ZM6 -1.96702e-08L6 10L7 10L7 1.96702e-08L6 -1.96702e-08Z"/>
</svg>
