<svg width="28" height="28" viewBox="0 0 28 28" fill="none" xmlns="http://www.w3.org/2000/svg">
<path fill-rule="evenodd" clip-rule="evenodd" d="M16.6996 16.7C14.4996 18.97 14.3496 21.8 14.1496 28C19.9296 28 23.9196 27.98 25.9796 25.98C27.9796 23.92 27.9996 19.74 27.9996 14.15C21.7996 14.35 18.9696 14.5 16.6996 16.7ZM13.8496 28C8.06957 28 4.07957 27.98 2.01957 25.98C0.0195727 23.92 -0.000427246 19.74 -0.000427246 14.15C6.19957 14.35 9.02957 14.5 11.2996 16.7C13.4996 18.97 13.6496 21.8 13.8496 28ZM11.2996 11.3C9.02957 13.5 6.19957 13.65 -0.000427246 13.85C-0.000427246 8.26 0.0195727 4.08 2.01957 2.02C4.07957 0.02 8.07957 0 13.8496 0C13.6496 6.2 13.4996 9.03 11.2996 11.3ZM14.1496 0C14.3396 6.2 14.4996 9.03 16.6996 11.3C18.9696 13.5 21.7996 13.65 27.9996 13.85C27.9996 8.26 27.9796 4.08 25.9796 2.02C23.9196 0.02 19.9296 0 14.1496 0Z" fill="#2C3036"/>
</svg>
