<svg viewBox="0 0 250 40" fill="none" xmlns="http://www.w3.org/2000/svg">
<path fill-rule="evenodd" clip-rule="evenodd" d="M21.4803 0.00732914C18.6414 0.00732914 15.8242 0.373417 13.1083 1.20812C10.6315 1.96961 8.32851 3.10453 6.3007 4.71536C5.43888 5.40363 4.65673 6.15779 3.95424 6.97786H20.9806C22.9432 6.97786 24.9493 7.21948 26.796 7.90774C28.3169 8.47154 29.7436 9.26964 30.9241 10.3899C32.0032 11.415 32.8215 12.6085 33.372 13.985C33.9224 15.3689 34.1976 16.8113 34.1976 18.305C34.1976 19.7987 33.9224 21.2411 33.372 22.625C32.8288 23.9942 32.0177 25.173 30.9313 26.1761C29.7436 27.2744 28.3169 28.0652 26.796 28.629C24.9493 29.3173 22.9505 29.5589 20.9806 29.5589H4.01217C4.70018 30.357 5.46061 31.0892 6.3007 31.7555C8.31403 33.3517 10.6098 34.45 13.0866 35.1456C15.8169 35.9144 18.6414 36.2512 21.4803 36.2512C24.3192 36.2512 27.1437 35.9144 29.874 35.1456C32.3508 34.45 34.6466 33.3517 36.6599 31.7555C38.6153 30.2032 40.1434 28.2995 41.2587 26.0809C42.4898 23.6427 42.9606 20.9482 42.9606 18.2318C42.9606 15.5153 42.4898 12.8281 41.2587 10.3826C40.1361 8.16402 38.6153 6.2603 36.6599 4.70804C34.6321 3.10452 32.3291 1.9623 29.8522 1.20082C27.1364 0.36611 24.3192 0 21.4803 0V0.00732914ZM0.572138 13.4066H18.9166C20.546 13.4066 22.5521 13.5896 23.9426 14.5049C25.2679 15.3762 25.7749 16.7674 25.7749 18.305C25.7749 19.8426 25.3186 21.4168 23.9716 22.376C22.5883 23.3645 20.575 23.5622 18.9166 23.5622H0.709741C0.210031 21.8415 0 20.0403 0 18.2318C0 16.599 0.166576 14.9735 0.572138 13.4066Z" fill="white"/>
<path fill-rule="evenodd" clip-rule="evenodd" d="M157.343 27.018H175.246V23.54H161.855V9.2109H157.343V27.0107V27.018ZM64.4765 9.00586C63.057 9.00586 61.6448 9.18891 60.2905 9.60627C59.0521 9.98701 57.9006 10.5581 56.8867 11.3562C55.909 12.1324 55.1485 13.0842 54.5837 14.1972C53.9681 15.4199 53.7363 16.7672 53.7363 18.1217C53.7363 19.4763 53.9681 20.8236 54.5837 22.0463C55.1413 23.1593 55.909 24.1111 56.8867 24.88C57.8933 25.6781 59.0448 26.2272 60.276 26.5786C61.6448 26.9594 63.057 27.1278 64.4765 27.1278C65.8959 27.1278 67.3082 26.9594 68.6697 26.5786C69.9081 26.2345 71.0524 25.6781 72.0663 24.88C73.044 24.1038 73.8044 23.152 74.3693 22.0463C74.9849 20.8236 75.2166 19.4763 75.2166 18.1217C75.2166 16.7672 74.9849 15.4199 74.3693 14.1972C73.8116 13.0842 73.044 12.1324 72.0663 11.3635C71.0524 10.5581 69.9009 9.99434 68.6624 9.6136C67.3009 9.19624 65.8959 9.01319 64.4765 9.01319V9.00586ZM64.4765 12.4838C65.2876 12.4838 66.0842 12.601 66.8519 12.8646C67.5761 13.1062 68.2569 13.465 68.8507 13.9482C69.4446 14.4315 69.9153 15.0319 70.2557 15.7201C70.6251 16.4743 70.7844 17.287 70.7844 18.1217C70.7844 18.9565 70.6323 19.7765 70.2557 20.5234C69.9153 21.2116 69.4518 21.812 68.8507 22.2953C68.2569 22.7785 67.5834 23.1373 66.8519 23.3789C66.0842 23.6352 65.2876 23.7597 64.4765 23.7597C63.6653 23.7597 62.8687 23.6425 62.101 23.3789C61.3768 23.1373 60.6961 22.7785 60.1022 22.2953C59.5083 21.812 59.0376 21.2116 58.6972 20.5234C58.3279 19.7692 58.1685 18.9565 58.1685 18.1217C58.1685 17.287 58.3206 16.467 58.6972 15.7201C59.0376 15.0319 59.5011 14.4315 60.1022 13.9482C60.6961 13.465 61.3696 13.1062 62.101 12.8646C62.8687 12.6083 63.6653 12.4838 64.4765 12.4838ZM245.596 19.3958V16.3425H237.434V12.5497H249.999V9.2109H232.922V27.0107H249.999V23.5473H237.434V19.3885H245.596V19.3958ZM195.545 27.018H200.195C197.79 21.0798 195.35 15.1637 192.967 9.2182H186.275L179.46 27.018H183.407L184.711 23.4888H194.177L195.553 27.018H195.545ZM185.667 20.4501L189.252 10.9535L193.155 20.4501H185.667ZM81.7273 27.018H85.6671V14.0947L96.82 27.018H100.992V9.2182H97.0518V21.2702L86.9055 9.2182H81.7273V27.018ZM122.255 19.3958V16.3425H114.093V12.5497H126.658V9.2109H109.581V27.0107H126.658V23.5473H114.093V19.3885H122.255V19.3958ZM133.458 9.2182V27.018H137.97V20.1719H144.843C145.799 20.1719 146.769 20.0547 147.667 19.7179C148.406 19.447 149.094 19.0663 149.673 18.5318C150.195 18.0412 150.593 17.4701 150.854 16.8038C151.122 16.1302 151.252 15.4273 151.252 14.7097C151.252 13.9921 151.122 13.2892 150.854 12.6156C150.586 11.9493 150.188 11.3636 149.666 10.873C149.094 10.3312 148.406 9.94308 147.667 9.67216C146.769 9.34267 145.799 9.2182 144.843 9.2182H133.458ZM143.836 17.2651H137.963V12.3374H143.836C144.626 12.3374 145.603 12.4253 146.277 12.8719C146.921 13.2966 147.168 13.9702 147.168 14.717C147.168 15.4639 146.943 16.2253 146.291 16.694C145.618 17.1699 144.64 17.2724 143.836 17.2724V17.2651ZM223.341 14.4022L225.325 10.7998C222.754 9.29143 219.546 9.00586 216.613 9.00586C215.208 9.00586 213.825 9.20357 212.47 9.59163C211.16 9.96505 209.921 10.5362 208.806 11.3196C207.734 12.0811 206.865 13.033 206.206 14.1605C205.503 15.376 205.228 16.7232 205.228 18.1144C205.228 19.5056 205.503 20.8529 206.206 22.0683C206.865 23.2032 207.727 24.1551 208.806 24.9092C209.914 25.6927 211.145 26.2418 212.463 26.5786C213.817 26.9301 215.208 27.1132 216.613 27.1132C217.793 27.1132 218.988 27.0473 220.162 26.8496C222.102 26.5274 224.224 26.0881 225.897 24.9898C225.115 23.8109 224.333 22.6321 223.551 21.4532C222.638 22.0829 221.776 22.449 220.632 22.7712C219.959 22.9616 219.271 23.1153 218.575 23.2252C218.09 23.3057 217.533 23.3936 217.04 23.3936C216.251 23.3936 215.469 23.2984 214.694 23.1373C213.89 22.9689 213.115 22.6834 212.398 22.2733C211.688 21.8633 211.102 21.3141 210.645 20.6332C210.146 19.879 209.95 19.0077 209.95 18.1144C209.95 17.2211 210.146 16.3498 210.645 15.5957C211.102 14.9147 211.688 14.3656 212.398 13.9555C213.115 13.5455 213.883 13.2599 214.694 13.0915C215.461 12.9305 216.251 12.8353 217.04 12.8353C217.83 12.8353 218.547 12.8865 219.292 12.9964C221.009 13.2599 221.943 13.6187 223.341 14.3949V14.4022Z" fill="white"/>
<path d="M170.031 35.9214H171.53C171.798 35.9214 172.037 35.9726 172.24 36.0751C172.443 36.1777 172.602 36.3241 172.711 36.5145C172.819 36.7048 172.877 36.9245 172.877 37.1734C172.877 37.5029 172.783 37.7739 172.602 37.9935C172.414 38.2132 172.168 38.345 171.842 38.4036L172.943 39.9412H172.523L171.436 38.4328H170.386V39.9412H170.031V35.9287V35.9214ZM171.494 38.096C171.813 38.096 172.066 38.0155 172.247 37.8471C172.428 37.686 172.523 37.459 172.523 37.1734C172.523 36.8879 172.428 36.6682 172.247 36.4998C172.066 36.3387 171.813 36.2509 171.494 36.2509H170.386V38.0887H171.494V38.096Z" fill="white"/>
<path d="M178.331 35.9214H180.714V36.2509H178.679V37.7299H180.562V38.0521H178.679V39.6117H180.772V39.9412H178.324V35.9287L178.331 35.9214Z" fill="white"/>
<path d="M187.354 35.9214H187.687L189.367 39.9338H188.998L188.578 38.9234H186.47L186.05 39.9338H185.674L187.354 35.9214ZM188.44 38.6012L187.521 36.3973L186.608 38.6012H188.44Z" fill="white"/>
<path d="M194.496 35.9214H194.851V39.6043H196.908V39.9338H194.496V35.9214Z" fill="white"/>
<path d="M207.843 35.9214H210.226V36.2509H208.191V37.7299H210.074V38.0521H208.191V39.6117H210.284V39.9412H207.836V35.9287L207.843 35.9214Z" fill="white"/>
<path d="M216.15 39.8533C215.918 39.7507 215.737 39.6043 215.607 39.414C215.477 39.2236 215.412 38.9966 215.404 38.7403H215.752C215.766 39.0332 215.882 39.2675 216.1 39.4286C216.317 39.5897 216.599 39.6775 216.954 39.6775C217.287 39.6775 217.548 39.6116 217.744 39.4725C217.939 39.3334 218.033 39.1503 218.033 38.916C218.033 38.7037 217.946 38.5353 217.765 38.4035C217.584 38.2717 217.294 38.1619 216.889 38.074C216.389 37.9569 216.027 37.8104 215.803 37.6274C215.578 37.4443 215.469 37.2027 215.469 36.9098C215.469 36.5877 215.593 36.3241 215.846 36.1337C216.1 35.9433 216.433 35.8408 216.86 35.8408C217.287 35.8408 217.657 35.9507 217.917 36.163C218.171 36.3753 218.308 36.6755 218.323 37.0636H217.975C217.961 36.778 217.852 36.5584 217.657 36.4046C217.461 36.2508 217.193 36.1703 216.853 36.1703C216.512 36.1703 216.273 36.2362 216.092 36.368C215.911 36.4998 215.817 36.6828 215.817 36.9025C215.817 37.1075 215.904 37.2686 216.078 37.4077C216.252 37.5395 216.549 37.6493 216.969 37.7445C217.476 37.8617 217.838 38.0081 218.055 38.1912C218.272 38.3742 218.388 38.6159 218.388 38.9087C218.388 39.2455 218.258 39.5091 217.997 39.7068C217.736 39.9045 217.389 39.9997 216.947 39.9997C216.643 39.9997 216.375 39.9485 216.143 39.846L216.15 39.8533Z" fill="white"/>
<path d="M224.515 36.2509H223.117V35.9214H226.26V36.2509H224.863V39.9338H224.515V36.2509Z" fill="white"/>
<path d="M232.213 35.9214H232.547L234.227 39.9338H233.857L233.437 38.9234H231.33L230.91 39.9338H230.533L232.213 35.9214ZM233.3 38.6012L232.38 36.3973L231.467 38.6012H233.3Z" fill="white"/>
<path d="M239.896 36.2509H238.498V35.9214H241.641V36.2509H240.243V39.9338H239.896V36.2509Z" fill="white"/>
<path d="M246.863 35.9214H249.245V36.2509H247.21V37.7299H249.093V38.0521H247.21V39.6117H249.303V39.9412H246.855V35.9287L246.863 35.9214Z" fill="white"/>
</svg>
