<svg viewBox="0 0 730 299" fill="none" xmlns="http://www.w3.org/2000/svg">
<path fill-rule="evenodd" clip-rule="evenodd" d="M384.837 247.616H451.335V234.765H401.596V181.823H384.837V247.589V247.616ZM39.8933 181.065C34.6208 181.065 29.3752 181.742 24.3448 183.284C19.7449 184.69 15.4678 186.8 11.7017 189.749C8.07014 192.617 5.24553 196.134 3.1473 200.246C0.860767 204.764 0 209.741 0 214.746C0 219.751 0.860767 224.729 3.1473 229.247C5.21863 233.359 8.07014 236.876 11.7017 239.716C15.4409 242.665 19.718 244.694 24.2911 245.992C29.3752 247.399 34.6208 248.021 39.8933 248.021C45.1658 248.021 50.4114 247.399 55.4686 245.992C60.0686 244.721 64.3189 242.665 68.0849 239.716C71.7165 236.849 74.541 233.332 76.6393 229.247C78.9258 224.729 79.7866 219.751 79.7866 214.746C79.7866 209.741 78.9258 204.764 76.6393 200.246C74.5679 196.134 71.7165 192.617 68.0849 189.776C64.3189 186.8 60.0417 184.717 55.4417 183.311C50.3844 181.769 45.1658 181.092 39.8933 181.092V181.065ZM39.8933 193.915C42.9061 193.915 45.8652 194.348 48.7166 195.322C51.4067 196.215 53.9353 197.54 56.1412 199.326C58.347 201.111 60.0955 203.33 61.3598 205.873C62.7318 208.659 63.3236 211.662 63.3236 214.746C63.3236 217.83 62.7587 220.86 61.3598 223.62C60.0955 226.163 58.3739 228.381 56.1412 230.166C53.9353 231.952 51.4336 233.278 48.7166 234.17C45.8652 235.117 42.9061 235.577 39.8933 235.577C36.8804 235.577 33.9214 235.144 31.0699 234.17C28.3799 233.278 25.8513 231.952 23.6455 230.166C21.4397 228.381 19.6911 226.163 18.4268 223.62C17.0549 220.833 16.463 217.83 16.463 214.746C16.463 211.662 17.028 208.632 18.4268 205.873C19.6911 203.33 21.4128 201.111 23.6455 199.326C25.8513 197.54 28.353 196.215 31.0699 195.322C33.9214 194.375 36.8804 193.915 39.8933 193.915ZM712.646 219.453V208.172H682.329V194.159H729.001V181.823H665.57V247.589H729.001V234.793H682.329V219.426H712.646V219.453ZM526.737 247.616H544.007C535.076 225.676 526.011 203.817 517.16 181.85H492.304L466.991 247.616H481.652L486.494 234.576H521.653L526.764 247.616H526.737ZM490.045 223.349L503.361 188.261L517.86 223.349H490.045ZM103.97 247.616H118.604V199.867L160.031 247.616H175.525V181.85H160.891V226.379L123.204 181.85H103.97V247.616ZM254.505 219.453V208.172H224.188V194.159H270.86V181.823H207.429V247.589H270.86V234.793H224.188V219.426H254.505V219.453ZM296.12 181.85V247.616H312.879V222.321H338.407C341.958 222.321 345.563 221.888 348.898 220.644C351.642 219.643 354.198 218.236 356.35 216.261C358.287 214.449 359.766 212.339 360.735 209.877C361.73 207.388 362.214 204.791 362.214 202.14C362.214 199.488 361.73 196.891 360.735 194.402C359.739 191.941 358.26 189.776 356.323 187.964C354.198 185.962 351.642 184.528 348.898 183.527C345.563 182.31 341.958 181.85 338.407 181.85H296.12ZM334.668 211.581H312.852V193.374H334.668C337.6 193.374 341.232 193.699 343.733 195.349C346.128 196.918 347.042 199.407 347.042 202.167C347.042 204.926 346.208 207.739 343.787 209.471C341.286 211.229 337.654 211.608 334.668 211.608V211.581ZM629.981 201.003L637.352 187.693C627.802 182.12 615.885 181.065 604.99 181.065C599.772 181.065 594.634 181.796 589.603 183.229C584.734 184.609 580.134 186.719 575.992 189.614C572.01 192.427 568.782 195.944 566.334 200.111C563.725 204.601 562.703 209.579 562.703 214.719C562.703 219.859 563.725 224.837 566.334 229.328C568.782 233.521 571.984 237.038 575.992 239.824C580.108 242.719 584.681 244.748 589.576 245.992C594.607 247.291 599.772 247.967 604.99 247.967C609.375 247.967 613.814 247.724 618.172 246.993C625.381 245.803 633.263 244.18 639.477 240.122C636.571 235.766 633.666 231.411 630.761 227.055C627.372 229.382 624.17 230.735 619.92 231.925C617.418 232.628 614.863 233.196 612.28 233.602C610.478 233.9 608.407 234.224 606.578 234.224C603.645 234.224 600.74 233.873 597.862 233.278C594.876 232.655 591.997 231.6 589.334 230.085C586.698 228.57 584.519 226.541 582.824 224.025C580.968 221.239 580.242 218.02 580.242 214.719C580.242 211.419 580.968 208.199 582.824 205.413C584.519 202.897 586.698 200.868 589.334 199.353C591.997 197.838 594.849 196.783 597.862 196.161C600.713 195.566 603.645 195.214 606.578 195.214C609.51 195.214 612.173 195.403 614.944 195.809C621.319 196.783 624.789 198.109 629.981 200.976V201.003Z" fill="#DDE6ED"/>
<path d="M217.287 283.919H222.856C223.851 283.919 224.738 284.108 225.492 284.487C226.245 284.865 226.837 285.406 227.24 286.11C227.644 286.813 227.859 287.625 227.859 288.545C227.859 289.762 227.509 290.763 226.837 291.575C226.137 292.386 225.223 292.873 224.012 293.09L228.101 298.771H226.541L222.506 293.198H218.605V298.771H217.287V283.946V283.919ZM222.721 291.953C223.905 291.953 224.846 291.656 225.519 291.034C226.191 290.438 226.541 289.6 226.541 288.545C226.541 287.49 226.191 286.678 225.519 286.056C224.846 285.461 223.905 285.136 222.721 285.136H218.605V291.926H222.721V291.953Z" fill="#DDE6ED"/>
<path d="M248.115 283.919H256.965V285.136H249.406V290.601H256.4V291.791H249.406V297.553H257.18V298.771H248.088V283.946L248.115 283.919Z" fill="#DDE6ED"/>
<path d="M281.631 283.919H282.869L289.11 298.744H287.738L286.178 295.01H278.35L276.789 298.744H275.391L281.631 283.919ZM285.666 293.82L282.25 285.677L278.861 293.82H285.666Z" fill="#DDE6ED"/>
<path d="M308.156 283.919H309.474V297.526H317.114V298.744H308.156V283.919Z" fill="#DDE6ED"/>
<path d="M357.734 283.919H366.584V285.136H359.025V290.601H366.019V291.791H359.025V297.553H366.799V298.771H357.707V283.946L357.734 283.919Z" fill="#DDE6ED"/>
<path d="M388.589 298.446C387.728 298.067 387.056 297.526 386.571 296.823C386.087 296.12 385.845 295.281 385.818 294.334H387.11C387.163 295.416 387.594 296.282 388.401 296.877C389.208 297.472 390.257 297.797 391.575 297.797C392.813 297.797 393.781 297.553 394.507 297.039C395.233 296.525 395.583 295.849 395.583 294.983C395.583 294.199 395.26 293.577 394.588 293.09C393.915 292.603 392.839 292.197 391.333 291.872C389.477 291.439 388.132 290.898 387.298 290.222C386.464 289.546 386.06 288.653 386.06 287.571C386.06 286.38 386.518 285.407 387.459 284.703C388.401 284 389.638 283.621 391.225 283.621C392.812 283.621 394.184 284.027 395.153 284.811C396.094 285.596 396.605 286.705 396.659 288.139H395.368C395.314 287.084 394.911 286.272 394.184 285.704C393.458 285.136 392.463 284.838 391.198 284.838C389.934 284.838 389.046 285.082 388.374 285.569C387.701 286.056 387.352 286.732 387.352 287.544C387.352 288.301 387.674 288.896 388.32 289.41C388.966 289.897 390.069 290.303 391.629 290.655C393.512 291.088 394.857 291.629 395.664 292.305C396.471 292.981 396.901 293.874 396.901 294.956C396.901 296.201 396.417 297.175 395.449 297.905C394.48 298.636 393.189 298.987 391.548 298.987C390.418 298.987 389.423 298.798 388.562 298.419L388.589 298.446Z" fill="#DDE6ED"/>
<path d="M419.659 285.136H414.467V283.919H426.142V285.136H420.95V298.744H419.659V285.136Z" fill="#DDE6ED"/>
<path d="M448.254 283.919H449.492L455.733 298.744H454.361L452.801 295.01H444.973L443.412 298.744H442.014L448.254 283.919ZM452.289 293.82L448.873 285.677L445.484 293.82H452.289Z" fill="#DDE6ED"/>
<path d="M476.795 285.136H471.604V283.919H483.278V285.136H478.086V298.744H476.795V285.136Z" fill="#DDE6ED"/>
<path d="M502.673 283.919H511.524V285.136H503.965V290.601H510.959V291.791H503.965V297.553H511.739V298.771H502.646V283.946L502.673 283.919Z" fill="#DDE6ED"/>
<path fill-rule="evenodd" clip-rule="evenodd" d="M365.506 0.0262528C355.288 0.0262528 345.148 1.33757 335.373 4.32746C326.459 7.05509 318.17 11.1203 310.871 16.8903C307.769 19.3556 304.954 22.057 302.426 24.9945H363.707C370.771 24.9945 377.991 25.8599 384.638 28.3253C390.112 30.3448 395.247 33.2036 399.496 37.2163C403.38 40.8881 406.325 45.1632 408.306 50.0939C410.288 55.0508 411.278 60.2175 411.278 65.5678C411.278 70.9182 410.288 76.0849 408.306 81.0418C406.352 85.9463 403.432 90.1689 399.522 93.762C395.247 97.6961 390.112 100.529 384.638 102.548C377.991 105.013 370.797 105.879 363.707 105.879H302.634C305.11 108.738 307.847 111.36 310.871 113.747C318.117 119.465 326.38 123.399 335.295 125.89C345.122 128.644 355.288 129.851 365.506 129.851C375.724 129.851 385.89 128.644 395.716 125.89C404.631 123.399 412.894 119.465 420.14 113.747C427.178 108.187 432.678 101.368 436.693 93.4211C441.124 84.6874 442.818 75.0358 442.818 65.3056C442.818 55.5753 441.124 45.9499 436.693 37.1901C432.652 29.2432 427.178 22.4242 420.14 16.864C412.842 11.1203 404.553 7.02891 395.638 4.30129C385.863 1.3114 375.724 0 365.506 0V0.0262528ZM290.253 48.0219H356.278C362.143 48.0219 369.364 48.6776 374.368 51.956C379.138 55.077 380.963 60.0602 380.963 65.5678C380.963 71.0756 379.321 76.7144 374.473 80.1501C369.494 83.6908 362.247 84.3989 356.278 84.3989H290.748C288.949 78.2355 288.193 71.7837 288.193 65.3056C288.193 59.4569 288.793 53.6345 290.253 48.0219Z" fill="#DDE6ED"/>
</svg>
