<svg width="24" height="39" viewBox="0 0 24 39" fill="none" xmlns="http://www.w3.org/2000/svg">
<path d="M12.0007 38.2269C8.90646 38.2269 5.939 36.9977 3.75107 34.8098C1.56315 32.6219 0.333984 29.6544 0.333984 26.5602V12.5602C0.333984 9.46603 1.56315 6.49857 3.75107 4.31064C5.939 2.12272 8.90646 0.893555 12.0007 0.893555C15.0948 0.893555 18.0623 2.12272 20.2502 4.31064C22.4382 6.49857 23.6673 9.46603 23.6673 12.5602V26.5602C23.6673 28.0923 23.3656 29.6094 22.7792 31.0249C22.1929 32.4403 21.3336 33.7265 20.2502 34.8098C19.1669 35.8932 17.8808 36.7525 16.4653 37.3388C15.0498 37.9251 13.5327 38.2269 12.0007 38.2269ZM12.0007 3.22689C9.5253 3.22689 7.15133 4.21022 5.40099 5.96056C3.65065 7.7109 2.66732 10.0849 2.66732 12.5602V26.5602C2.66732 29.0356 3.65065 31.4095 5.40099 33.1599C7.15133 34.9102 9.5253 35.8936 12.0007 35.8936C14.476 35.8936 16.85 34.9102 18.6003 33.1599C20.3507 31.4095 21.334 29.0356 21.334 26.5602V12.5602C21.334 10.0849 20.3507 7.7109 18.6003 5.96056C16.85 4.21022 14.476 3.22689 12.0007 3.22689Z" fill="white"/>
<path d="M12.0007 16.0601C11.6912 16.0601 11.3945 15.9371 11.1757 15.7183C10.9569 15.4996 10.834 15.2028 10.834 14.8934V10.2267C10.834 9.91731 10.9569 9.62056 11.1757 9.40177C11.3945 9.18298 11.6912 9.06006 12.0007 9.06006C12.3101 9.06006 12.6068 9.18298 12.8256 9.40177C13.0444 9.62056 13.1673 9.91731 13.1673 10.2267V14.8934C13.1673 15.2028 13.0444 15.4996 12.8256 15.7183C12.6068 15.9371 12.3101 16.0601 12.0007 16.0601Z" fill="white"/>
</svg>
