<svg viewBox="0 0 26 26" xmlns="http://www.w3.org/2000/svg">
<circle cx="13" cy="13" r="13" fill="white"/>
<path d="M9.89138 12.3007C10.7234 13.9358 12.0638 15.2762 13.6989 16.1082L14.97 14.8371C15.1318 14.6754 15.3572 14.6291 15.5594 14.6927C16.2065 14.9065 16.8998 15.022 17.622 15.022C17.7753 15.022 17.9222 15.0829 18.0306 15.1913C18.1389 15.2996 18.1998 15.4466 18.1998 15.5998V17.622C18.1998 17.7753 18.1389 17.9222 18.0306 18.0306C17.9222 18.1389 17.7753 18.1998 17.622 18.1998C15.017 18.1998 12.5187 17.165 10.6767 15.3229C8.83466 13.4809 7.79982 10.9826 7.79982 8.37758C7.79982 8.22435 7.86069 8.07739 7.96905 7.96903C8.0774 7.86068 8.22436 7.7998 8.3776 7.7998H10.3998C10.5531 7.7998 10.7 7.86068 10.8084 7.96903C10.9167 8.07739 10.9776 8.22435 10.9776 8.37758C10.9776 9.0998 11.0932 9.79314 11.3069 10.4402C11.3705 10.6425 11.3243 10.8678 11.1625 11.0296L9.89138 12.3007Z" fill="#4E829C"/>
</svg>
