<svg width="218" height="163" viewBox="0 0 218 163" fill="none" xmlns="http://www.w3.org/2000/svg">
<path d="M168.583 97.6668C170.999 97.6668 173.317 97.2985 175.625 96.9626C174.877 99.476 174.108 102.033 172.873 104.329C171.638 107.666 169.71 110.558 167.792 113.473C166.189 116.625 163.361 118.759 161.281 121.457C159.104 124.078 156.135 125.823 153.785 128C151.477 130.275 148.455 131.413 146.05 133.016C143.536 134.457 141.348 136.049 139.008 136.808L133.169 139.213L128.034 141.347L133.288 162.342L139.755 160.782C141.825 160.262 144.349 159.655 147.22 158.929C150.155 158.388 153.286 156.903 156.775 155.549C160.22 154.011 164.206 152.971 167.911 150.501C171.638 148.139 175.939 146.168 179.73 143.004C183.403 139.743 187.834 136.916 191.105 132.767C194.68 128.888 198.212 124.815 200.953 120.178C204.127 115.758 206.283 110.905 208.558 106.106C210.616 101.307 212.274 96.3993 213.628 91.6326C216.195 82.0776 217.344 72.9993 217.788 65.2318C218.156 57.4534 217.94 50.986 217.485 46.306C217.322 44.096 217.019 41.951 216.802 40.4668L216.531 38.6468L216.25 38.7118C214.323 29.7111 209.887 21.4399 203.456 14.8548C197.025 8.2698 188.86 3.64005 179.908 1.50119C170.955 -0.637672 161.58 -0.198271 152.866 2.76859C144.153 5.73544 136.458 11.1085 130.671 18.2662C124.883 25.424 121.241 34.0738 120.164 43.2152C119.088 52.3567 120.621 61.6161 124.587 69.9224C128.553 78.2287 134.79 85.2424 142.576 90.1523C150.362 95.0621 159.378 97.6674 168.583 97.6668ZM49.4163 97.6668C51.8321 97.6668 54.1505 97.2985 56.458 96.9626C55.7105 99.476 54.9413 102.033 53.7063 104.329C52.4713 107.666 50.543 110.558 48.6255 113.473C47.0222 116.625 44.1946 118.759 42.1146 121.457C39.9371 124.078 36.9688 125.823 34.618 128C32.3105 130.275 29.288 131.413 26.883 133.016C24.3697 134.457 22.1813 136.049 19.8413 136.808L14.0022 139.213L8.86715 141.347L14.1213 162.342L20.5888 160.782C22.658 160.262 25.1822 159.655 28.053 158.929C30.9888 158.388 34.1196 156.903 37.608 155.549C41.0421 154 45.0397 152.971 48.7447 150.49C52.4713 148.128 56.7721 146.157 60.5638 142.993C64.2363 139.733 68.6672 136.905 71.9388 132.767C75.5138 128.888 79.0455 124.815 81.7863 120.178C84.9605 115.758 87.1163 110.905 89.3913 106.106C91.4496 101.307 93.1072 96.3993 94.4613 91.6326C97.0288 82.0776 98.1771 72.9993 98.6213 65.2318C98.9896 57.4534 98.773 50.986 98.318 46.306C98.1555 44.096 97.8522 41.951 97.6355 40.4668L97.3646 38.6468L97.083 38.7118C95.1561 29.7111 90.7205 21.4399 84.2892 14.8548C77.8579 8.2698 69.6937 3.64005 60.7411 1.50119C51.7884 -0.637672 42.4132 -0.198271 33.6998 2.76859C24.9865 5.73544 17.2911 11.1085 11.5039 18.2662C5.71671 25.424 2.07415 34.0738 0.997624 43.2152C-0.0788968 52.3567 1.45461 61.6161 5.42072 69.9224C9.38683 78.2287 15.6235 85.2424 23.4092 90.1523C31.195 95.0621 40.2117 97.6674 49.4163 97.6668Z" fill="#CDB891"/>
</svg>
