<svg width="36" height="36" viewBox="0 0 36 36" fill="none" xmlns="http://www.w3.org/2000/svg">
  <path d="M15.3424 4.18756C16.506 3.60406 17.875 4.45267 17.875 5.75741V29.2448C17.875 29.2448 17.875 29.2447 17.875 29.2448L19.625 29.2449C19.625 29.2449 19.625 29.2448 19.625 29.2449V14.992C19.625 13.7496 20.8767 12.9006 22.0264 13.363L27.2764 15.4747C27.94 15.7416 28.375 16.3866 28.375 17.1037V29.2448C28.375 29.2447 28.375 29.2448 28.375 29.2448L30.125 29.2449C30.6082 29.2449 31 29.6378 31 30.1224C31 30.6071 30.6082 31 30.125 31H3.875C3.39175 31 3 30.6071 3 30.1224C3 29.6378 3.39175 29.2449 3.875 29.2449H5.625C5.625 29.2448 5.625 29.2449 5.625 29.2449V10.1453C5.625 9.48049 5.9995 8.87274 6.59238 8.57544L15.3424 4.18756Z" fill="#9A9A9A"/>
</svg>
