<svg viewBox="0 0 26 26" xmlns="http://www.w3.org/2000/svg">
<path d="M13 0.5C15.4723 0.5 17.889 1.23311 19.9446 2.60663C22.0002 3.98015 23.6024 5.93238 24.5485 8.21646C25.4946 10.5005 25.7421 13.0139 25.2598 15.4386C24.7775 17.8634 23.587 20.0907 21.8388 21.8388C20.0907 23.587 17.8634 24.7775 15.4386 25.2598C13.0139 25.7421 10.5005 25.4946 8.21645 24.5485C5.93237 23.6024 3.98014 22.0002 2.60662 19.9446C1.23311 17.889 0.499994 15.4723 0.499994 13C0.503633 9.68591 1.82176 6.5086 4.16518 4.16518C6.50859 1.82177 9.68591 0.503639 13 0.5ZM13 24.5C15.2745 24.5 17.4979 23.8255 19.3891 22.5619C21.2802 21.2983 22.7542 19.5022 23.6246 17.4009C24.495 15.2995 24.7228 12.9872 24.279 10.7565C23.8353 8.52568 22.74 6.47658 21.1317 4.86827C19.5234 3.25997 17.4743 2.1647 15.2435 1.72097C13.0128 1.27724 10.7005 1.50498 8.59913 2.37539C6.49778 3.24579 4.70173 4.71978 3.43809 6.61094C2.17446 8.50211 1.49999 10.7255 1.49999 13C1.5033 16.049 2.71597 18.9721 4.87192 21.1281C7.02787 23.284 9.95102 24.4967 13 24.5ZM8.64624 13.6462C8.59976 13.6927 8.56288 13.7478 8.53771 13.8085C8.51255 13.8692 8.4996 13.9343 8.4996 14C8.4996 14.0657 8.51255 14.1308 8.53771 14.1915C8.56288 14.2522 8.59976 14.3073 8.64624 14.3538L12.6462 18.3538C12.6927 18.4002 12.7478 18.4371 12.8085 18.4623C12.8692 18.4874 12.9343 18.5004 13 18.5004C13.0657 18.5004 13.1308 18.4874 13.1915 18.4623C13.2522 18.4371 13.3073 18.4002 13.3537 18.3538L17.3537 14.3538C17.4476 14.2599 17.5003 14.1327 17.5003 14C17.5003 13.8673 17.4476 13.7401 17.3537 13.6462C17.2599 13.5524 17.1327 13.4997 17 13.4997C16.8673 13.4997 16.7401 13.5524 16.6462 13.6462L13.5 16.7925V8C13.5 7.86739 13.4473 7.74021 13.3535 7.64645C13.2598 7.55268 13.1326 7.5 13 7.5C12.8674 7.5 12.7402 7.55268 12.6464 7.64645C12.5527 7.74021 12.5 7.86739 12.5 8V16.7925L9.35374 13.6462C9.30731 13.5998 9.25216 13.5629 9.19147 13.5377C9.13077 13.5126 9.0657 13.4996 8.99999 13.4996C8.93429 13.4996 8.86922 13.5126 8.80852 13.5377C8.74782 13.5629 8.69268 13.5998 8.64624 13.6462Z"/>
</svg>
