<svg viewBox="0 0 11 13" xmlns="http://www.w3.org/2000/svg">
<path d="M1.06572 7.24695C1.01607 7.29656 0.976674 7.35546 0.949797 7.4203C0.922919 7.48513 0.909083 7.55463 0.909083 7.62482C0.909083 7.69501 0.922919 7.76451 0.949797 7.82935C0.976674 7.89419 1.01607 7.95309 1.06572 8.00269L5.33845 12.2754C5.38806 12.3251 5.44696 12.3645 5.5118 12.3913C5.57663 12.4182 5.64613 12.4321 5.71632 12.4321C5.78651 12.4321 5.85601 12.4182 5.92085 12.3913C5.98568 12.3645 6.04459 12.3251 6.09419 12.2754L10.3669 8.00269C10.4671 7.90248 10.5234 7.76655 10.5234 7.62482C10.5234 7.48309 10.4671 7.34717 10.3669 7.24695C10.2667 7.14674 10.1308 7.09044 9.98905 7.09044C9.84732 7.09044 9.7114 7.14674 9.61118 7.24695L6.25041 10.6077L6.25041 1.21573C6.25041 1.07408 6.19414 0.938233 6.09398 0.838072C5.99382 0.73791 5.85797 0.681641 5.71632 0.681641C5.57467 0.681641 5.43882 0.73791 5.33866 0.838072C5.2385 0.938233 5.18223 1.07408 5.18223 1.21573L5.18223 10.6077L1.82146 7.24695C1.77186 7.19729 1.71296 7.1579 1.64812 7.13102C1.58328 7.10415 1.51378 7.09031 1.4436 7.09031C1.37341 7.09031 1.30391 7.10415 1.23907 7.13102C1.17423 7.1579 1.11533 7.19729 1.06572 7.24695Z"/>
</svg>
