<svg width="36" height="36" viewBox="0 0 36 36" fill="none" xmlns="http://www.w3.org/2000/svg">
  <path d="M19.3966 6.22727C19.3966 5.46443 18.7691 4.85 18 4.85C17.2309 4.85 16.6034 5.46443 16.6034 6.22727V7.80114C13.4827 8.33664 10.85 10.6445 10.85 13.7797C10.85 16.9149 13.4827 19.2228 16.6034 19.7583V26.3909C14.7596 25.9147 13.6432 24.5357 13.6432 23.2203C13.6432 22.4574 13.0157 21.843 12.2466 21.843C11.4775 21.843 10.85 22.4574 10.85 23.2203C10.85 26.3555 13.4827 28.6634 16.6034 29.1989V30.7727C16.6034 31.5356 17.2309 32.15 18 32.15C18.7691 32.15 19.3966 31.5356 19.3966 30.7727V29.1989C22.5173 28.6634 25.15 26.3555 25.15 23.2203C25.15 20.0851 22.5173 17.7772 19.3966 17.2417V10.6091C21.2404 11.0853 22.3568 12.4643 22.3568 13.7797C22.3568 14.5426 22.9843 15.157 23.7534 15.157C24.5225 15.157 25.15 14.5426 25.15 13.7797C25.15 10.6445 22.5173 8.33664 19.3966 7.80114V6.22727ZM13.6432 13.7797C13.6432 12.4643 14.7596 11.0853 16.6034 10.6091V16.9503C14.7596 16.4741 13.6432 15.0952 13.6432 13.7797ZM19.3966 26.3909V20.0497C21.2404 20.5259 22.3568 21.9048 22.3568 23.2203C22.3568 24.5357 21.2404 25.9147 19.3966 26.3909Z" fill="#9A9A9A" stroke="#9A9A9A" stroke-width="0.3"/>
</svg>
