<svg width="36" height="36" viewBox="0 0 36 36" fill="none" xmlns="http://www.w3.org/2000/svg">
  <path d="M18 5C20.9174 5 23.7153 6.17073 25.7782 8.25464C27.8411 10.3385 29 13.1649 29 16.112C29 20.8076 25.7338 25.9248 19.2862 31.5184C18.9276 31.8295 18.4705 32.0004 17.9979 32C17.5252 31.9996 17.0684 31.8279 16.7105 31.5161L16.284 31.1423C10.1217 25.6946 7 20.7027 7 16.112C7 13.1649 8.15893 10.3385 10.2218 8.25464C12.2847 6.17073 15.0826 5 18 5ZM18 11.8382C16.8779 11.8382 15.8018 12.2885 15.0084 13.09C14.215 13.8915 13.7692 14.9785 13.7692 16.112C13.7692 17.2455 14.215 18.3326 15.0084 19.1341C15.8018 19.9356 16.8779 20.3859 18 20.3859C19.1221 20.3859 20.1982 19.9356 20.9916 19.1341C21.785 18.3326 22.2308 17.2455 22.2308 16.112C22.2308 14.9785 21.785 13.8915 20.9916 13.09C20.1982 12.2885 19.1221 11.8382 18 11.8382Z" fill="#9A9A9A"/>
</svg>
