<svg viewBox="0 0 11 14" fill="none" xmlns="http://www.w3.org/2000/svg">
<path d="M5.25 0C2.3475 0 0 2.191 0 4.9C0 8.575 5.25 14 5.25 14C5.25 14 10.5 8.575 10.5 4.9C10.5 2.191 8.1525 0 5.25 0ZM1.5 4.9C1.5 2.968 3.18 1.4 5.25 1.4C7.32 1.4 9 2.968 9 4.9C9 6.916 6.84 9.933 5.25 11.816C3.69 9.947 1.5 6.895 1.5 4.9Z" fill="#9A9A9A"/>
<path d="M5.25 6.98267C6.28553 6.98267 7.125 6.19916 7.125 5.23267C7.125 4.26617 6.28553 3.48267 5.25 3.48267C4.21447 3.48267 3.375 4.26617 3.375 5.23267C3.375 6.19916 4.21447 6.98267 5.25 6.98267Z" fill="#9A9A9A"/>
</svg>
