<svg viewBox="0 0 12 13" xmlns="http://www.w3.org/2000/svg">
<path d="M2.41333 5.97196C3.37333 7.90894 4.92 9.49685 6.80667 10.4824L8.27333 8.97667C8.46 8.78503 8.72 8.73027 8.95333 8.80556C9.7 9.0588 10.5 9.19569 11.3333 9.19569C11.5101 9.19569 11.6797 9.2678 11.8047 9.39616C11.9298 9.52452 12 9.69861 12 9.88014V12.2757C12 12.4572 11.9298 12.6313 11.8047 12.7597C11.6797 12.888 11.5101 12.9601 11.3333 12.9601C8.32755 12.9601 5.44487 11.7343 3.31946 9.55216C1.19404 7.37007 0 4.41052 0 1.32458C0 1.14306 0.0702379 0.968964 0.195262 0.840606C0.320286 0.712248 0.489856 0.640137 0.666667 0.640137H3C3.17681 0.640137 3.34638 0.712248 3.4714 0.840606C3.59643 0.968964 3.66667 1.14306 3.66667 1.32458C3.66667 2.18014 3.8 3.00147 4.04667 3.76805C4.12 4.0076 4.06667 4.27454 3.88 4.46618L2.41333 5.97196Z"/>
</svg>
