<svg width="20" height="20" viewBox="0 0 20 20" xmlns="http://www.w3.org/2000/svg">
  <path d="M3 7.09211C3 6.6999 3.22919 6.34406 3.58618 6.18171L12.5862 2.09077C13.2483 1.78986 14 2.27387 14 3.00117V9.44819H9C7.89545 9.44819 7 10.3436 7 11.4482V16.4482C7 16.8124 7.09741 17.154 7.26758 17.4482H4C3.44769 17.4482 3 17.0004 3 16.4482V7.09211Z" />
  <path d="M15 9.94819C15 9.11982 15.6716 8.44819 16.5 8.44819C17.3284 8.44819 18 9.11982 18 9.94819V16.4482C18 17.0004 17.5523 17.4482 17 17.4482H14V14.4482C14 13.8959 13.5523 13.4482 13 13.4482C12.4477 13.4482 12 13.8959 12 14.4482V17.4482H9C8.44769 17.4482 8 17.0004 8 16.4482V11.4482C8 10.8959 8.44769 10.4482 9 10.4482H15V9.94819Z" />
</svg>