<svg viewBox="0 0 26 26" xmlns="http://www.w3.org/2000/svg">
<path d="M5.21246 24.5792C2.9095 25.2075 0.796125 23.0938 1.42297 20.7904V20.7904C1.64032 19.9917 1.51138 19.1463 1.16777 18.3933C0.39736 16.705 -0.00304725 14.8658 1.74611e-05 13C1.74611e-05 5.82009 5.82012 0 13 0C20.1799 0 26 5.82009 26 13C26 20.1799 20.1799 26 13 26C11.1353 26.003 9.29726 25.603 7.60981 24.8335C6.85656 24.4899 6.01114 24.3613 5.21246 24.5792V24.5792ZM8.30828 6.9004C8.14043 6.9108 7.97638 6.95503 7.826 7.0304C7.68498 7.11027 7.55629 7.21011 7.44383 7.3268C7.28783 7.47371 7.19943 7.60108 7.10452 7.72456C6.62404 8.34988 6.36561 9.11747 6.37001 9.90599C6.37261 10.543 6.53903 11.1631 6.79903 11.7429C7.33068 12.9155 8.2056 14.157 9.36132 15.3075C9.63948 15.5844 9.9112 15.8626 10.2037 16.1213C11.6382 17.3842 13.3474 18.2949 15.1957 18.7811L15.9354 18.8942C16.1759 18.9072 16.4164 18.889 16.6582 18.8773C17.0368 18.8578 17.4065 18.7552 17.7411 18.577C17.875 18.5081 18.0063 18.4343 18.1348 18.3559C18.2047 18.3133 18.2734 18.2686 18.3394 18.2202C18.3577 18.2068 18.3784 18.1914 18.4015 18.174C18.577 18.044 18.6849 17.9517 18.8305 17.7996C18.9384 17.6878 19.032 17.5565 19.1035 17.407C19.2049 17.1951 19.3063 16.7908 19.3479 16.4541C19.3791 16.1967 19.37 16.0563 19.3661 15.9692C19.3609 15.8301 19.2452 15.6858 19.1191 15.6247L18.4806 15.3383C18.4019 15.303 18.3234 15.2683 18.2443 15.2338C17.9367 15.0993 17.0964 14.7311 16.5412 14.4781C16.4684 14.4464 16.3905 14.4283 16.3111 14.4248C16.2222 14.4156 16.1323 14.4257 16.0475 14.4541C15.9633 14.4824 15.8861 14.5283 15.821 14.5887C15.8205 14.5891 15.8197 14.5888 15.8197 14.5881V14.5881C15.8197 14.5877 15.8194 14.5873 15.819 14.5875C15.8079 14.5921 15.7009 14.6919 14.7862 15.8002C14.7323 15.8727 14.658 15.9275 14.5728 15.9575C14.4875 15.9876 14.3953 15.9917 14.3078 15.9692C14.2231 15.9465 14.1401 15.9179 14.0595 15.8834C13.8983 15.8158 13.8424 15.7898 13.7319 15.7417L13.7254 15.7391C12.9817 15.4144 12.2931 14.9758 11.6844 14.4391C11.5206 14.2961 11.3685 14.1401 11.2125 13.9893C10.701 13.4995 10.2554 12.9454 9.88652 12.3409L9.80983 12.2174C9.75471 12.1344 9.7102 12.0449 9.6772 11.9509V11.9509C9.61623 11.7148 9.83961 11.5171 10.0002 11.3336C10.0798 11.2426 10.1623 11.146 10.2193 11.0734C10.3416 10.9178 10.4557 10.756 10.5612 10.5885C10.7146 10.3415 10.7627 10.088 10.6821 9.89171C10.3181 9.00251 9.94108 8.11719 9.55372 7.2384C9.47703 7.06416 9.24948 6.93936 9.0428 6.91468C8.97263 6.90691 8.9024 6.89908 8.83223 6.89388C8.65765 6.88521 8.48273 6.88826 8.30828 6.9004Z"/>
</svg>
